<mxfile host="Electron" modified="2024-02-02T07:50:26.157Z" agent="Mozilla/5.0 (X11; Linux x86_64) AppleWebKit/537.36 (KHTML, like Gecko) draw.io/23.0.2 Chrome/120.0.6099.109 Electron/28.1.0 Safari/537.36" etag="LwnZyXJ3R_7b2dkfrDKx" version="23.0.2" type="device">
  <diagram id="prtHgNgQTEPvFCAcTncT" name="Page-1">
    <mxGraphModel dx="1434" dy="839" grid="1" gridSize="10" guides="1" tooltips="1" connect="1" arrows="1" fold="1" page="1" pageScale="1" pageWidth="1169" pageHeight="827" math="0" shadow="0">
      <root>
        <mxCell id="0" />
        <mxCell id="1" parent="0" />
        <mxCell id="dNxyNK7c78bLwvsdeMH5-11" value="App" style="swimlane;html=1;startSize=20;horizontal=1;containerType=tree;glass=0;" parent="1" vertex="1">
          <mxGeometry x="10" y="70" width="1130" height="580" as="geometry" />
        </mxCell>
        <mxCell id="MU4hXPZb1SBPSvmcG4zD-4" value="" style="rounded=1;whiteSpace=wrap;html=1;" parent="dNxyNK7c78bLwvsdeMH5-11" vertex="1">
          <mxGeometry x="110" y="130" width="100" height="320" as="geometry" />
        </mxCell>
        <mxCell id="MU4hXPZb1SBPSvmcG4zD-5" value="" style="shape=flexArrow;endArrow=classic;html=1;rounded=0;" parent="dNxyNK7c78bLwvsdeMH5-11" edge="1">
          <mxGeometry width="50" height="50" relative="1" as="geometry">
            <mxPoint x="30" y="290" as="sourcePoint" />
            <mxPoint x="110" y="290" as="targetPoint" />
          </mxGeometry>
        </mxCell>
        <mxCell id="MU4hXPZb1SBPSvmcG4zD-6" value="NGINX" style="text;html=1;strokeColor=none;fillColor=none;align=center;verticalAlign=middle;whiteSpace=wrap;rounded=0;fontSize=14;fontStyle=1" parent="dNxyNK7c78bLwvsdeMH5-11" vertex="1">
          <mxGeometry x="130" y="270" width="60" height="30" as="geometry" />
        </mxCell>
        <mxCell id="MU4hXPZb1SBPSvmcG4zD-8" value="" style="shape=cylinder3;whiteSpace=wrap;html=1;boundedLbl=1;backgroundOutline=1;size=15;" parent="dNxyNK7c78bLwvsdeMH5-11" vertex="1">
          <mxGeometry x="890" y="70" width="160" height="200" as="geometry" />
        </mxCell>
        <mxCell id="MU4hXPZb1SBPSvmcG4zD-9" value="" style="shape=cylinder3;whiteSpace=wrap;html=1;boundedLbl=1;backgroundOutline=1;size=15;" parent="dNxyNK7c78bLwvsdeMH5-11" vertex="1">
          <mxGeometry x="890" y="330" width="160" height="200" as="geometry" />
        </mxCell>
        <mxCell id="MU4hXPZb1SBPSvmcG4zD-10" value="POSTGRES" style="text;html=1;strokeColor=none;fillColor=none;align=center;verticalAlign=middle;whiteSpace=wrap;rounded=0;fontSize=14;fontStyle=1" parent="dNxyNK7c78bLwvsdeMH5-11" vertex="1">
          <mxGeometry x="920" y="230" width="100" height="30" as="geometry" />
        </mxCell>
        <mxCell id="MU4hXPZb1SBPSvmcG4zD-11" value="MONGO" style="text;html=1;strokeColor=none;fillColor=none;align=center;verticalAlign=middle;whiteSpace=wrap;rounded=0;fontSize=14;fontStyle=1" parent="dNxyNK7c78bLwvsdeMH5-11" vertex="1">
          <mxGeometry x="920" y="470" width="100" height="50" as="geometry" />
        </mxCell>
        <mxCell id="MU4hXPZb1SBPSvmcG4zD-12" value="Транспорт" style="text;html=1;strokeColor=none;fillColor=none;align=center;verticalAlign=middle;whiteSpace=wrap;rounded=0;fontSize=14;fontStyle=1" parent="dNxyNK7c78bLwvsdeMH5-11" vertex="1">
          <mxGeometry x="905" y="130" width="130" height="40" as="geometry" />
        </mxCell>
        <mxCell id="MU4hXPZb1SBPSvmcG4zD-13" value="Пользователи" style="text;html=1;strokeColor=none;fillColor=none;align=center;verticalAlign=middle;whiteSpace=wrap;rounded=0;fontSize=14;fontStyle=1" parent="dNxyNK7c78bLwvsdeMH5-11" vertex="1">
          <mxGeometry x="900" y="390" width="140" height="50" as="geometry" />
        </mxCell>
        <mxCell id="MU4hXPZb1SBPSvmcG4zD-14" value="" style="rounded=1;whiteSpace=wrap;html=1;" parent="dNxyNK7c78bLwvsdeMH5-11" vertex="1">
          <mxGeometry x="690" y="337" width="120" height="186" as="geometry" />
        </mxCell>
        <mxCell id="MU4hXPZb1SBPSvmcG4zD-15" value="REDIS" style="text;html=1;strokeColor=none;fillColor=none;align=center;verticalAlign=middle;whiteSpace=wrap;rounded=0;fontSize=14;fontStyle=1" parent="dNxyNK7c78bLwvsdeMH5-11" vertex="1">
          <mxGeometry x="725" y="480" width="60" height="30" as="geometry" />
        </mxCell>
        <mxCell id="MU4hXPZb1SBPSvmcG4zD-17" value="Кеширование" style="text;html=1;strokeColor=none;fillColor=none;align=center;verticalAlign=middle;whiteSpace=wrap;rounded=0;fontSize=14;fontStyle=1" parent="dNxyNK7c78bLwvsdeMH5-11" vertex="1">
          <mxGeometry x="700" y="370" width="110" height="30" as="geometry" />
        </mxCell>
        <mxCell id="MU4hXPZb1SBPSvmcG4zD-18" value="" style="endArrow=classic;startArrow=classic;html=1;rounded=0;entryX=0;entryY=0.5;entryDx=0;entryDy=0;entryPerimeter=0;exitX=1;exitY=0.5;exitDx=0;exitDy=0;" parent="dNxyNK7c78bLwvsdeMH5-11" source="MU4hXPZb1SBPSvmcG4zD-14" target="MU4hXPZb1SBPSvmcG4zD-9" edge="1">
          <mxGeometry width="50" height="50" relative="1" as="geometry">
            <mxPoint x="380" y="390" as="sourcePoint" />
            <mxPoint x="430" y="340" as="targetPoint" />
          </mxGeometry>
        </mxCell>
        <mxCell id="MU4hXPZb1SBPSvmcG4zD-22" value="" style="rounded=1;whiteSpace=wrap;html=1;" parent="dNxyNK7c78bLwvsdeMH5-11" vertex="1">
          <mxGeometry x="390" y="330" width="220" height="90" as="geometry" />
        </mxCell>
        <mxCell id="MU4hXPZb1SBPSvmcG4zD-23" value="&lt;h1 style=&quot;font-size: 16px;&quot;&gt;Публичные роуты&lt;/h1&gt;&lt;p&gt;/login&amp;nbsp; /logout&amp;nbsp; /refreshtoken /register&lt;/p&gt;" style="text;html=1;strokeColor=none;fillColor=none;spacing=5;spacingTop=-20;whiteSpace=wrap;overflow=hidden;rounded=0;" parent="dNxyNK7c78bLwvsdeMH5-11" vertex="1">
          <mxGeometry x="400" y="345" width="210" height="45" as="geometry" />
        </mxCell>
        <mxCell id="MU4hXPZb1SBPSvmcG4zD-24" value="" style="rounded=1;whiteSpace=wrap;html=1;" parent="dNxyNK7c78bLwvsdeMH5-11" vertex="1">
          <mxGeometry x="390" y="445" width="220" height="90" as="geometry" />
        </mxCell>
        <mxCell id="MU4hXPZb1SBPSvmcG4zD-25" value="&lt;h1 style=&quot;font-size: 16px;&quot;&gt;&lt;span style=&quot;background-color: initial;&quot;&gt;&lt;font style=&quot;font-size: 16px;&quot;&gt;Закрытые роуты&lt;/font&gt;&lt;/span&gt;&lt;/h1&gt;&lt;h1 style=&quot;&quot;&gt;&lt;span style=&quot;font-weight: 400;&quot;&gt;&lt;font style=&quot;font-size: 12px;&quot;&gt;/getAll и другие&lt;/font&gt;&lt;/span&gt;&lt;/h1&gt;" style="text;html=1;strokeColor=none;fillColor=none;spacing=5;spacingTop=-20;whiteSpace=wrap;overflow=hidden;rounded=0;" parent="dNxyNK7c78bLwvsdeMH5-11" vertex="1">
          <mxGeometry x="405" y="460" width="190" height="60" as="geometry" />
        </mxCell>
        <mxCell id="MU4hXPZb1SBPSvmcG4zD-27" value="" style="endArrow=classic;startArrow=classic;html=1;rounded=0;entryX=1;entryY=0.75;entryDx=0;entryDy=0;exitX=-0.027;exitY=0.219;exitDx=0;exitDy=0;exitPerimeter=0;" parent="dNxyNK7c78bLwvsdeMH5-11" source="MU4hXPZb1SBPSvmcG4zD-14" target="MU4hXPZb1SBPSvmcG4zD-23" edge="1">
          <mxGeometry width="50" height="50" relative="1" as="geometry">
            <mxPoint x="680" y="379" as="sourcePoint" />
            <mxPoint x="430" y="340" as="targetPoint" />
          </mxGeometry>
        </mxCell>
        <mxCell id="MU4hXPZb1SBPSvmcG4zD-29" value="" style="endArrow=classic;startArrow=classic;html=1;rounded=0;entryX=0;entryY=0.75;entryDx=0;entryDy=0;exitX=1.007;exitY=0.34;exitDx=0;exitDy=0;exitPerimeter=0;" parent="dNxyNK7c78bLwvsdeMH5-11" source="MU4hXPZb1SBPSvmcG4zD-24" target="MU4hXPZb1SBPSvmcG4zD-14" edge="1">
          <mxGeometry width="50" height="50" relative="1" as="geometry">
            <mxPoint x="380" y="390" as="sourcePoint" />
            <mxPoint x="430" y="340" as="targetPoint" />
          </mxGeometry>
        </mxCell>
        <mxCell id="MU4hXPZb1SBPSvmcG4zD-32" value="GRAPHQL" style="text;html=1;strokeColor=none;fillColor=none;align=center;verticalAlign=middle;whiteSpace=wrap;rounded=0;fontSize=22;" parent="dNxyNK7c78bLwvsdeMH5-11" vertex="1">
          <mxGeometry x="480" y="130" width="130" height="30" as="geometry" />
        </mxCell>
        <mxCell id="MU4hXPZb1SBPSvmcG4zD-33" value="Rest API" style="text;html=1;strokeColor=none;fillColor=none;align=center;verticalAlign=middle;whiteSpace=wrap;rounded=0;fontSize=22;rotation=30;" parent="dNxyNK7c78bLwvsdeMH5-11" vertex="1">
          <mxGeometry x="230" y="337" width="140" height="50" as="geometry" />
        </mxCell>
        <mxCell id="MU4hXPZb1SBPSvmcG4zD-30" value="" style="shape=flexArrow;endArrow=classic;html=1;rounded=0;entryX=0;entryY=0.5;entryDx=0;entryDy=0;entryPerimeter=0;" parent="1" target="MU4hXPZb1SBPSvmcG4zD-8" edge="1">
          <mxGeometry width="50" height="50" relative="1" as="geometry">
            <mxPoint x="230" y="240" as="sourcePoint" />
            <mxPoint x="440" y="410" as="targetPoint" />
          </mxGeometry>
        </mxCell>
        <mxCell id="MU4hXPZb1SBPSvmcG4zD-31" value="" style="shape=flexArrow;endArrow=classic;html=1;rounded=0;" parent="1" edge="1">
          <mxGeometry width="50" height="50" relative="1" as="geometry">
            <mxPoint x="230" y="410" as="sourcePoint" />
            <mxPoint x="390" y="500" as="targetPoint" />
          </mxGeometry>
        </mxCell>
      </root>
    </mxGraphModel>
  </diagram>
</mxfile>
